HIERARCHY
ROOT hip
{
  OFFSET 0 0 0
  CHANNELS 6 Xposition Yposition Zposition Zrotation Yrotation Xrotation
  JOINT abdomen
  {
    OFFSET 0 20.6881 -0.73152
    CHANNELS 3 Zrotation Xrotation Yrotation
    JOINT chest
    {
      OFFSET 0 11.7043 -0.48768
      CHANNELS 3 Zrotation Xrotation Yrotation
      JOINT neck
      {
        OFFSET 0 22.1894 -2.19456
        CHANNELS 3 Zrotation Xrotation Yrotation
        JOINT head
        {
          OFFSET -0.24384 7.07133 1.2192
          CHANNELS 3 Zrotation Xrotation Yrotation
          JOINT leftEye
          {
            OFFSET 4.14528 8.04674 8.04672
            CHANNELS 3 Zrotation Xrotation Yrotation
            End Site
            {
              OFFSET 1 0 0
            }
          }
          JOINT rightEye
          {
            OFFSET -3.6576 8.04674 8.04672
            CHANNELS 3 Zrotation Xrotation Yrotation
            End Site
            {
              OFFSET 1 0 0
            }
          }
        }
      }
      JOINT rCollar
      {
        OFFSET -2.68224 19.2634 -4.8768
        CHANNELS 3 Zrotation Xrotation Yrotation
        JOINT rShldr
        {
          OFFSET -8.77824 -1.95073 1.46304
          CHANNELS 3 Zrotation Xrotation Yrotation
          JOINT rForeArm
          {
            OFFSET -28.1742 -1.7115 0.48768
            CHANNELS 3 Zrotation Xrotation Yrotation
            JOINT rHand
            {
              OFFSET -22.5879 0.773209 7.07136
              CHANNELS 3 Zrotation Xrotation Yrotation
              JOINT rThumb1
              {
                OFFSET -1.2192 -0.487915 3.41376
                CHANNELS 3 Zrotation Xrotation Yrotation
                JOINT rThumb2
                {
                  OFFSET -3.37035 -0.52449 3.41376
                  CHANNELS 3 Zrotation Xrotation Yrotation
                  End Site
                  {
                    OFFSET -1.78271 -1.18214 1.43049
                  }
                }
              }
              JOINT rIndex1
              {
                OFFSET -7.75947 0.938293 5.60832
                CHANNELS 3 Zrotation Xrotation Yrotation
                JOINT rIndex2
                {
                  OFFSET -2.54057 -0.884171 1.56538
                  CHANNELS 3 Zrotation Xrotation Yrotation
                  End Site
                  {
                    OFFSET -1.62519 -0.234802 1.16502
                  }
                }
              }
              JOINT rMid1
              {
                OFFSET -8.24714 1.18213 3.41376
                CHANNELS 3 Zrotation Xrotation Yrotation
                JOINT rMid2
                {
                  OFFSET -3.10165 -0.590103 1.0647
                  CHANNELS 3 Zrotation Xrotation Yrotation
                  End Site
                  {
                    OFFSET -2.48547 -0.328903 0.83742
                  }
                }
              }
              JOINT rRing1
              {
                OFFSET -8.82822 0.546677 1.51678
                CHANNELS 3 Zrotation Xrotation Yrotation
                JOINT rRing2
                {
                  OFFSET -2.60934 -0.819778 -0.0198488
                  CHANNELS 3 Zrotation Xrotation Yrotation
                  End Site
                  {
                    OFFSET -2.33842 -0.294052 0.168128
                  }
                }
              }
              JOINT rPinky1
              {
                OFFSET -8.27202 -0.0477905 -0.4584
                CHANNELS 3 Zrotation Xrotation Yrotation
                JOINT rPinky2
                {
                  OFFSET -1.82734 -0.647385 -0.700984
                  CHANNELS 3 Zrotation Xrotation Yrotation
                  End Site
                  {
                    OFFSET -1.69225 -0.51767 -0.607171
                  }
                }
              }
            }
          }
        }
      }
      JOINT lCollar
      {
        OFFSET 2.68224 19.2634 -4.8768
        CHANNELS 3 Zrotation Xrotation Yrotation
        JOINT lShldr
        {
          OFFSET 8.77824 -1.95073 1.46304
          CHANNELS 3 Zrotation Xrotation Yrotation
          JOINT lForeArm
          {
            OFFSET 28.1742 -1.7115 0.48768
            CHANNELS 3 Zrotation Xrotation Yrotation
            JOINT lHand
            {
              OFFSET 22.5879 0.773209 7.07136
              CHANNELS 3 Zrotation Xrotation Yrotation
              JOINT lThumb1
              {
                OFFSET 1.2192 -0.487915 3.41376
                CHANNELS 3 Zrotation Xrotation Yrotation
                JOINT lThumb2
                {
                  OFFSET 3.37035 -0.52449 3.41376
                  CHANNELS 3 Zrotation Xrotation Yrotation
                  End Site
                  {
                    OFFSET 1.78271 -1.18214 1.43049
                  }
                }
              }
              JOINT lIndex1
              {
                OFFSET 7.75947 0.938293 5.60832
                CHANNELS 3 Zrotation Xrotation Yrotation
                JOINT lIndex2
                {
                  OFFSET 2.54057 -0.884171 1.56538
                  CHANNELS 3 Zrotation Xrotation Yrotation
                  End Site
                  {
                    OFFSET 1.62519 -0.234802 1.16502
                  }
                }
              }
              JOINT lMid1
              {
                OFFSET 8.24714 1.18213 3.41376
                CHANNELS 3 Zrotation Xrotation Yrotation
                JOINT lMid2
                {
                  OFFSET 3.10165 -0.590103 1.0647
                  CHANNELS 3 Zrotation Xrotation Yrotation
                  End Site
                  {
                    OFFSET 2.48547 -0.328903 0.83742
                  }
                }
              }
              JOINT lRing1
              {
                OFFSET 8.82822 0.546677 1.51678
                CHANNELS 3 Zrotation Xrotation Yrotation
                JOINT lRing2
                {
                  OFFSET 2.60934 -0.819778 -0.0198488
                  CHANNELS 3 Zrotation Xrotation Yrotation
                  End Site
                  {
                    OFFSET 2.33842 -0.294052 0.168128
                  }
                }
              }
              JOINT lPinky1
              {
                OFFSET 8.27202 -0.0477905 -0.4584
                CHANNELS 3 Zrotation Xrotation Yrotation
                JOINT lPinky2
                {
                  OFFSET 1.82734 -0.647385 -0.700984
                  CHANNELS 3 Zrotation Xrotation Yrotation
                  End Site
                  {
                    OFFSET 1.69225 -0.51767 -0.607171
                  }
                }
              }
            }
          }
        }
      }
    }
  }
  JOINT rButtock
  {
    OFFSET -8.77824 4.35084 1.2192
    CHANNELS 3 Zrotation Xrotation Yrotation
    JOINT rThigh
    {
      OFFSET 0 -1.70687 -2.19456
      CHANNELS 3 Zrotation Xrotation Yrotation
      JOINT rShin
      {
        OFFSET 0 -36.8199 0.73152
        CHANNELS 3 Zrotation Xrotation Yrotation
        JOINT rFoot
        {
          OFFSET 0.73152 -45.1104 -5.12064
          CHANNELS 3 Zrotation Xrotation Yrotation
          End Site
          {
            OFFSET -1.1221 -3.69964 12.103
          }
        }
      }
    }
  }
  JOINT lButtock
  {
    OFFSET 8.77824 4.35084 1.2192
    CHANNELS 3 Zrotation Xrotation Yrotation
    JOINT lThigh
    {
      OFFSET 0 -1.70687 -2.19456
      CHANNELS 3 Zrotation Xrotation Yrotation
      JOINT lShin
      {
        OFFSET 0 -36.8199 0.73152
        CHANNELS 3 Zrotation Xrotation Yrotation
        JOINT lFoot
        {
          OFFSET -0.73152 -45.1104 -5.12064
          CHANNELS 3 Zrotation Xrotation Yrotation
          End Site
          {
            OFFSET 1.1221 -3.69964 12.103
          }
        }
      }
    }
  }
}
MOTION
Frames:	5
Frame Time:	0.00833333
119.037 85.1731 11.9869 0.0 0.0 0.0 0.512934 -0.00341816 0.0146932 0.141687 -0.00540202 0.0245504 -5.43931e-15 0.0 -6.83322e-17 -1.61326e-14 3.18055e-15 -2.20527e-16 -0.0 0.0 0.0 -0.0 0.0 0.0 -2.58554e-15 1.20358e-17 1.98785e-16 -5.57055e-14 3.72721e-17 -3.97569e-16 -9.62018e-13 2.97382e-13 -2.22639e-14 -1.10477e-11 -2.45275e-13 -1.7175e-13 -2.60535e-11 1.151e-13 -3.94389e-13 -4.49957e-11 1.97194e-13 -6.66326e-13 -2.60479e-11 1.16488e-13 -3.97569e-13 7.73091 5.47488 0.417314 -2.60544e-11 1.15196e-13 -3.84847e-13 2.90554 0.965183 0.102902 -2.60509e-11 1.14898e-13 -3.84847e-13 10.2786 0.731801 0.0259123 -2.60609e-11 1.17681e-13 -3.72125e-13 2.22167 -0.733487 -0.20892 -2.88122e-15 1.20358e-17 -2.98177e-16 -5.72393e-14 -6.21202e-17 -1.78906e-15 -9.65149e-13 -2.82473e-13 -1.90833e-14 -1.10374e-11 3.24889e-13 -1.46306e-13 -2.60345e-11 9.52569e-14 -3.72125e-13 -4.4954e-11 1.7175e-13 -6.52014e-13 -2.604e-11 9.50191e-14 -3.59403e-13 -7.73091 5.47488 -0.417314 -2.60348e-11 9.56154e-14 -3.72125e-13 -2.90554 0.965183 -0.102902 -2.60384e-11 9.56154e-14 -3.78486e-13 -10.2786 0.731801 -0.0259123 -2.60348e-11 9.46215e-14 -3.91208e-13 -2.22167 -0.733487 0.20892 -2.03217e-16 0.0 -3.88251e-19 0.859966 -4.41147 -0.072969 -0.00213095 2.43942 -0.0112506 -0.474399 1.97258 0.093832 2.03217e-16 0.0 3.88251e-19 -0.0777335 -2.42095 0.0232552 0.00766812 -1.16604 0.0660024 0.465823 3.58745 -0.125222
110.704 83.4657 4.09155 -170.261 -79.7691 167.093 -0.0806692 1.44404 0.214464 0.213743 0.68148 0.078584 -0.258483 3.86543 -2.497 1.82085 -6.14098 -4.67937 -0.0 0.0 0.0 -0.0 0.0 0.0 -1.00277e-14 9.83886e-14 1.59319e-14 21.479 10.7996 0.360682 -4.6743 -2.22287 7.19021 0.0380474 -4.32917 -0.602168 -1.29145e-10 1.12095e-10 1.46336e-10 -2.24221e-10 1.95159e-10 2.51273e-10 -1.2914e-10 1.12095e-10 1.46333e-10 7.73091 5.47488 0.417314 -1.29145e-10 1.12094e-10 1.46343e-10 2.90554 0.965183 0.102902 -1.2914e-10 1.12095e-10 1.46343e-10 10.2786 0.731801 0.0259123 -1.29152e-10 1.12097e-10 1.46353e-10 2.22167 -0.733487 -0.20892 -1.02649e-14 9.83888e-14 1.55891e-14 -21.5603 2.99227 -0.351173 3.86343 -1.69007 -6.10331 -0.00642446 1.78525 -0.250466 1.90429e-10 -1.54212e-10 -3.30413e-10 3.2757e-10 -2.67479e-10 -5.72673e-10 1.90423e-10 -1.54211e-10 -3.30403e-10 -7.73091 5.47488 -0.417314 1.90429e-10 -1.54211e-10 -3.30414e-10 -2.90554 0.965183 -0.102902 1.90424e-10 -1.5421e-10 -3.30419e-10 -10.2786 0.731801 -0.0259123 1.90431e-10 -1.5421e-10 -3.30431e-10 -2.22167 -0.733487 0.20892 -2.03217e-16 0.0 -3.88251e-19 2.82142 -7.24031 5.01715 0.0588218 12.9777 0.211816 -2.03209 -6.82068 -7.52053 2.03217e-16 0.0 3.88251e-19 -0.790508 -5.13764 -4.54 -0.105167 10.3964 -0.210781 2.0871 -6.64662 7.5068
110.7 83.4608 4.12786 -171.049 -79.8317 167.88 -0.719186 2.97456 0.423783 0.289722 1.40648 0.135117 -0.161622 7.9327 -5.17467 2.63814 -12.5079 -9.80455 -0.0 0.0 0.0 -0.0 0.0 0.0 -1.66397e-14 1.74572e-13 2.94729e-14 44.0269 22.2138 0.789876 -9.01332 -4.45544 14.8245 -0.0217516 -8.90019 -1.24973 -2.58504e-10 2.36442e-10 2.9503e-10 -4.48818e-10 4.11772e-10 5.06265e-10 -2.58499e-10 2.36441e-10 2.95026e-10 7.73091 5.47488 0.417314 -2.58502e-10 2.36441e-10 2.95034e-10 2.90554 0.965183 0.102902 -2.58497e-10 2.36443e-10 2.95033e-10 10.2786 0.731801 0.0259123 -2.58511e-10 2.36444e-10 2.9504e-10 2.22167 -0.733487 -0.20892 -1.68162e-14 1.74572e-13 2.92959e-14 -44.3152 6.13972 -0.721055 7.55876 -3.41293 -12.5727 0.00385922 3.69083 -0.518647 4.25702e-10 -3.46621e-10 -6.98495e-10 7.32454e-10 -6.0113e-10 -1.21061e-09 4.25697e-10 -3.46618e-10 -6.98488e-10 -7.73091 5.47488 -0.417314 4.25702e-10 -3.46619e-10 -6.98497e-10 -2.90554 0.965183 -0.102902 4.25696e-10 -3.46618e-10 -6.98501e-10 -10.2786 0.731801 -0.0259123 4.25707e-10 -3.46617e-10 -6.98511e-10 -2.22167 -0.733487 0.20892 -2.03217e-16 0.0 -3.88251e-19 5.44781 -10.1198 10.4799 0.0259713 24.119 0.478004 -6.26585 -15.6005 -16.0724 2.03217e-16 0.0 3.88251e-19 -2.01534 -7.93368 -9.41571 -0.0945819 22.6177 -0.537632 6.84538 -16.9205 16.1976
110.7 83.455 4.12886 -170.919 -79.8503 167.751 -1.29823 4.33873 0.615567 0.353967 2.05524 0.186755 0.249696 11.5073 -7.62816 2.35782 -17.9195 -14.6846 -0.0 0.0 0.0 -0.0 0.0 0.0 -2.49121e-14 2.95142e-13 4.73981e-14 63.9654 32.393 1.25878 -12.3848 -6.24944 21.6897 -0.164895 -12.9817 -1.84861 -3.35327e-10 3.36054e-10 4.39798e-10 -5.82671e-10 5.85083e-10 7.5515e-10 -3.35323e-10 3.36051e-10 4.39794e-10 7.73091 5.47488 0.417314 -3.35325e-10 3.36052e-10 4.398e-10 2.90554 0.965183 0.102902 -3.35319e-10 3.36054e-10 4.39799e-10 10.2786 0.731801 0.0259123 -3.35334e-10 3.36055e-10 4.39804e-10 2.22167 -0.733487 -0.20892 -2.50323e-14 2.95142e-13 4.73636e-14 -64.5696 8.97545 -1.06513 10.5273 -4.84052 -18.3698 0.0277248 5.35533 -0.754326 6.23355e-10 -4.62826e-10 -9.90495e-10 1.07262e-09 -8.02781e-10 -1.71671e-09 6.2335e-10 -4.62822e-10 -9.90491e-10 -7.73091 5.47488 -0.417314 6.23355e-10 -4.62823e-10 -9.90498e-10 -2.90554 0.965183 -0.102902 6.23348e-10 -4.62823e-10 -9.90502e-10 -10.2786 0.731801 -0.0259123 6.23362e-10 -4.6282e-10 -9.9051e-10 -2.22167 -0.733487 0.20892 -2.03217e-16 0.0 -3.88251e-19 8.26264 -12.5264 15.4533 -0.109313 34.052 0.774511 -12.4256 -22.5878 -24.5838 2.03217e-16 0.0 3.88251e-19 -3.51841 -10.3177 -13.8398 0.0571376 33.5182 -0.904328 13.9444 -25.0347 25.1168
110.705 83.4452 4.18338 -170.753 -80.0788 167.632 -1.70769 5.28719 0.762071 0.391541 2.51339 0.22606 0.715941 13.9354 -9.38965 1.57216 -21.4239 -18.3281 -0.0 0.0 0.0 -0.0 0.0 0.0 -3.73353e-14 5.26679e-13 7.62836e-14 77.737 39.49 1.66026 -14.4769 -7.34574 26.5185 -0.318163 -15.8448 -2.28601 -2.80811e-10 3.73823e-10 5.74755e-10 -4.89666e-10 6.5014e-10 9.88765e-10 -2.80807e-10 3.7382e-10 5.74748e-10 7.73091 5.47488 0.417314 -2.80808e-10 3.73821e-10 5.74755e-10 2.90554 0.965183 0.102902 -2.80802e-10 3.73824e-10 5.74755e-10 10.2786 0.731801 0.0259123 -2.80819e-10 3.73824e-10 5.74758e-10 2.22167 -0.733487 -0.20892 -3.74102e-14 5.26679e-13 7.63333e-14 -78.6482 11.033 -1.33425 12.4217 -5.74873 -22.429 0.05078 6.41756 -0.905758 7.26956e-10 -3.88521e-10 -1.09229e-09 1.25099e-09 -6.74433e-10 -1.89325e-09 7.26951e-10 -3.88516e-10 -1.09229e-09 -7.73091 5.47488 -0.417314 7.26956e-10 -3.88517e-10 -1.09229e-09 -2.90554 0.965183 -0.102902 7.26948e-10 -3.88517e-10 -1.0923e-09 -10.2786 0.731801 -0.0259123 7.26963e-10 -3.88514e-10 -1.0923e-09 -2.22167 -0.733487 0.20892 -2.03217e-16 0.0 -3.88251e-19 10.4776 -14.0803 18.9883 -0.284627 40.9667 1.04099 -18.1795 -26.8418 -31.1942 2.03217e-16 0.0 3.88251e-19 -4.80057 -11.901 -16.9837 0.274765 41.1196 -1.23897 20.5887 -29.7874 32.206
